<svg width="45" height="45" viewBox="0 0 45 45" fill="none" xmlns="http://www.w3.org/2000/svg">
<g clip-path="url(#clip0_38_4988)" filter="url(#filter0_d_38_4988)">
<g filter="url(#filter1_d_38_4988)">
<path fill-rule="evenodd" clip-rule="evenodd" d="M22.5 0C32.7179 0 41 8.28208 41 18.5C41 28.7179 32.7179 37 22.5 37C12.2821 37 4 28.7179 4 18.5C4 8.28208 12.2821 0 22.5 0Z" fill="#F8D05F"/>
</g>
<path fill-rule="evenodd" clip-rule="evenodd" d="M22.5 10.36C25.3608 10.36 27.68 12.6791 27.68 15.54C27.68 18.4008 25.3608 20.72 22.5 20.72C19.6392 20.72 17.32 18.4008 17.32 15.54C17.32 12.6791 19.6392 10.36 22.5 10.36Z" fill="#1F0D15"/>
<path fill-rule="evenodd" clip-rule="evenodd" d="M22.5 23.68C29.4471 23.68 35.08 28.86 35.08 28.86C35.08 28.86 29.4471 34.04 22.5 34.04C15.5529 34.04 9.91998 28.86 9.91998 28.86C9.91998 28.86 15.5529 23.68 22.5 23.68Z" fill="#1F0D15"/>
</g>
<defs>
<filter id="filter0_d_38_4988" x="0" y="0" width="45" height="45" filterUnits="userSpaceOnUse" color-interpolation-filters="sRGB">
<feFlood flood-opacity="0" result="BackgroundImageFix"/>
<feColorMatrix in="SourceAlpha" type="matrix" values="0 0 0 0 0 0 0 0 0 0 0 0 0 0 0 0 0 0 127 0" result="hardAlpha"/>
<feOffset dy="4"/>
<feGaussianBlur stdDeviation="2"/>
<feComposite in2="hardAlpha" operator="out"/>
<feColorMatrix type="matrix" values="0 0 0 0 0 0 0 0 0 0 0 0 0 0 0 0 0 0 0.25 0"/>
<feBlend mode="normal" in2="BackgroundImageFix" result="effect1_dropShadow_38_4988"/>
<feBlend mode="normal" in="SourceGraphic" in2="effect1_dropShadow_38_4988" result="shape"/>
</filter>
<filter id="filter1_d_38_4988" x="0" y="0" width="45" height="45" filterUnits="userSpaceOnUse" color-interpolation-filters="sRGB">
<feFlood flood-opacity="0" result="BackgroundImageFix"/>
<feColorMatrix in="SourceAlpha" type="matrix" values="0 0 0 0 0 0 0 0 0 0 0 0 0 0 0 0 0 0 127 0" result="hardAlpha"/>
<feOffset dy="4"/>
<feGaussianBlur stdDeviation="2"/>
<feComposite in2="hardAlpha" operator="out"/>
<feColorMatrix type="matrix" values="0 0 0 0 0 0 0 0 0 0 0 0 0 0 0 0 0 0 0.25 0"/>
<feBlend mode="normal" in2="BackgroundImageFix" result="effect1_dropShadow_38_4988"/>
<feBlend mode="normal" in="SourceGraphic" in2="effect1_dropShadow_38_4988" result="shape"/>
</filter>
<clipPath id="clip0_38_4988">
<rect width="37" height="37" fill="white" transform="translate(4)"/>
</clipPath>
</defs>
</svg>
